<?xml version="1.0" encoding="utf-8"?>
<!-- Generator: Adobe Illustrator 18.0.0, SVG Export Plug-In . SVG Version: 6.00 Build 0)  -->
<!DOCTYPE svg PUBLIC "-//W3C//DTD SVG 1.1//EN" "http://www.w3.org/Graphics/SVG/1.1/DTD/svg11.dtd">
<svg version="1.1" id="ecommerce_1_" xmlns="http://www.w3.org/2000/svg" xmlns:xlink="http://www.w3.org/1999/xlink" x="0px"
	 y="0px" viewBox="0 0 115 115" style="enable-background:new 0 0 115 115;" xml:space="preserve">
<style type="text/css">
	.st0{fill:#FFEEAD;}
	.st1{fill:#C9B77D;}
	.st2{fill:#99734A;}
	.st3{fill:#FF6F69;}
	.st4{fill:#96CEB4;}
	.st5{fill:none;}
	.st6{fill:#AA9865;}
	.st7{fill:#71A58A;}
	.st8{fill:#FFCC5C;}
	.st9{fill:#825E3B;}
	.st10{fill:#639376;}
	.st11{fill:#E05858;}
	.st12{fill:#C1821E;}
	.st13{fill:#D6A041;}
	.st14{fill:#B28559;}
	.st15{fill:#BF4343;}
	.st16{fill:#D3C089;}
	.st17{fill:#7C5C3C;}
	.st18{fill:#FDCC5C;}
	.st19{fill:#FFFFFF;}
</style>
<g id="tracking_code_1_">
	<g>
		<g>
			<path class="st1" d="M4.248,11.805v93.589c0,5.305,4.301,9.606,9.606,9.606h87.293c5.305,0,9.606-4.301,9.606-9.606V11.805H4.248
				z"/>
		</g>
	</g>
	<g>
		<g>
			<g>
				<path class="st11" d="M34.422,104.371l-4.863-9.175c-0.484-0.912-1.791-0.912-2.274,0l-4.863,9.175
					c-0.454,0.857,0.167,1.89,1.137,1.89h2.251v3.157c0,0.711,0.576,1.287,1.287,1.287h2.649c0.711,0,1.287-0.576,1.287-1.287
					v-3.157h2.251C34.254,106.261,34.876,105.229,34.422,104.371z"/>
			</g>
		</g>
		<g>
			<g>
				<path class="st11" d="M92.578,104.371l-4.863-9.175c-0.484-0.912-1.791-0.912-2.274,0l-4.862,9.175
					c-0.454,0.857,0.167,1.89,1.137,1.89h2.251v3.157c0,0.711,0.576,1.287,1.287,1.287h2.649c0.711,0,1.287-0.576,1.287-1.287
					v-3.157h2.251C92.411,106.261,93.032,105.229,92.578,104.371z"/>
			</g>
		</g>
	</g>
	<g>
		<g>
			<g>
				<path class="st2" d="M29.795,62.146h-4.291c-0.631,0-1.142,0.511-1.142,1.142v26.539c0,0.631,0.511,1.142,1.142,1.142h4.291
					c0.631,0,1.142-0.511,1.142-1.142V63.288C30.936,62.657,30.425,62.146,29.795,62.146z"/>
			</g>
		</g>
		<g>
			<g>
				<path class="st2" d="M38.245,62.146h-4.291c-0.63,0-1.142,0.511-1.142,1.142v17.707c0,0.631,0.511,1.142,1.142,1.142h4.291
					c0.63,0,1.142-0.511,1.142-1.142V63.288C39.386,62.657,38.875,62.146,38.245,62.146z"/>
			</g>
		</g>
		<g>
			<g>
				<path class="st2" d="M89.334,62.146h-4.202c-0.631,0-1.142,0.511-1.142,1.142v26.539c0,0.631,0.511,1.142,1.142,1.142h4.202
					c0.631,0,1.142-0.511,1.142-1.142V63.288C90.475,62.657,89.964,62.146,89.334,62.146z"/>
			</g>
		</g>
		<g>
			<g>
				<path class="st2" d="M43.523,62.146h-0.354c-0.631,0-1.142,0.511-1.142,1.142v17.707c0,0.631,0.511,1.142,1.142,1.142h0.354
					c0.63,0,1.142-0.511,1.142-1.142V63.288C44.664,62.657,44.153,62.146,43.523,62.146z"/>
			</g>
		</g>
		<g>
			<g>
				<path class="st2" d="M47.189,62.146h-0.354c-0.631,0-1.142,0.511-1.142,1.142v17.707c0,0.631,0.511,1.142,1.142,1.142h0.354
					c0.631,0,1.142-0.511,1.142-1.142V63.288C48.331,62.657,47.82,62.146,47.189,62.146z"/>
			</g>
		</g>
		<g>
			<g>
				<path class="st2" d="M64.113,62.146h-4.291c-0.631,0-1.142,0.511-1.142,1.142v17.707c0,0.631,0.511,1.142,1.142,1.142h4.291
					c0.631,0,1.142-0.511,1.142-1.142V63.288C65.255,62.657,64.743,62.146,64.113,62.146z"/>
			</g>
		</g>
		<g>
			<g>
				<path class="st2" d="M72.563,62.146h-4.291c-0.63,0-1.142,0.511-1.142,1.142v17.707c0,0.631,0.511,1.142,1.142,1.142h4.291
					c0.63,0,1.142-0.511,1.142-1.142V63.288C73.704,62.657,73.193,62.146,72.563,62.146z"/>
			</g>
		</g>
		<g>
			<g>
				<path class="st2" d="M76.978,62.146h-0.354c-0.631,0-1.142,0.511-1.142,1.142v17.707c0,0.631,0.511,1.142,1.142,1.142h0.354
					c0.631,0,1.142-0.511,1.142-1.142V63.288C78.12,62.657,77.609,62.146,76.978,62.146z"/>
			</g>
		</g>
		<g>
			<g>
				<path class="st2" d="M81.19,62.146h-0.037c-0.631,0-1.142,0.511-1.142,1.142v17.707c0,0.631,0.511,1.142,1.142,1.142h0.037
					c0.631,0,1.142-0.511,1.142-1.142V63.288C82.332,62.657,81.821,62.146,81.19,62.146z"/>
			</g>
		</g>
		<g>
			<g>
				<path class="st2" d="M54.578,62.146h-2.413c-0.63,0-1.142,0.511-1.142,1.142v17.707c0,0.631,0.511,1.142,1.142,1.142h2.413
					c0.63,0,1.142-0.511,1.142-1.142V63.288C55.719,62.657,55.208,62.146,54.578,62.146z"/>
			</g>
		</g>
		<g>
			<g>
				<g>
					<polygon class="st2" points="34.571,83.423 32.161,84.771 32.951,86.241 34.393,85.489 34.393,91.409 36.229,91.409 
						36.229,83.423 					"/>
				</g>
			</g>
			<g>
				<g>
					<path class="st2" d="M40.286,89.852c0.37-0.385,0.753-0.816,1.365-1.534c1.16-1.36,1.173-1.582,1.173-2.756v-0.321
						c0-1.348-0.791-1.942-2.755-1.942c-0.74,0-1.646,0.124-2.436,0.323l0.242,1.495c0.548-0.136,1.492-0.236,2.104-0.236
						c0.714,0,1.008,0.149,1.008,0.582v0.222c0,0.84-0.14,0.915-1.39,2.3c-0.766,0.84-0.932,0.988-1.85,1.903v1.52H42.9v-1.557
						H40.286z"/>
				</g>
			</g>
			<g>
				<g>
					<path class="st2" d="M48.104,87.379c0.6-0.358,0.855-0.915,0.855-1.644v-0.58c0-1.236-0.574-1.855-2.704-1.855
						c-0.752,0-1.39,0.075-2.117,0.224l0.191,1.396c0.638-0.112,1.199-0.174,1.76-0.174c0.804,0,1.033,0.112,1.033,0.631v0.507
						c0,0.544-0.229,0.766-1.045,0.766h-1.416v1.52h1.683c0.637,0,0.931,0.199,0.931,0.656v0.569c0,0.482-0.242,0.656-1.135,0.656
						c-0.739,0-1.212-0.05-1.836-0.161l-0.192,1.371c0.663,0.211,1.314,0.273,2.091,0.273c2.321,0,2.908-0.791,2.908-2.004v-0.631
						C49.112,88.121,48.818,87.688,48.104,87.379z"/>
				</g>
			</g>
			<g>
				<g>
					<path class="st2" d="M55.503,88.27v-4.847h-2.41l-3.15,4.746v1.545h3.749v1.694h1.811v-1.694h1.033V88.27H55.503z
						 M53.692,88.27h-1.951l1.951-3.079V88.27z"/>
				</g>
			</g>
			<g>
				<g>
					<path class="st2" d="M60.784,86.7c-0.484-0.025-0.714-0.037-1.148-0.05v-1.681h2.819v-1.545h-4.655v4.673
						c0.689,0.012,1.11,0.025,2.028,0.062c0.816,0.037,0.969,0.186,0.969,0.741v0.335c0,0.518-0.178,0.754-1.045,0.754
						c-0.612,0-1.352-0.062-1.989-0.197l-0.268,1.433c0.702,0.211,1.697,0.309,2.27,0.309c2.321,0,2.857-0.791,2.869-2.201v-0.878
						C62.633,87.479,62.251,86.786,60.784,86.7z"/>
				</g>
			</g>
			<g>
				<g>
					<path class="st2" d="M67.085,86.539c-0.523,0-0.943,0.048-1.403,0.186v-0.605c0-1.027,0.626-1.323,2.334-1.323
						c0.192,0,0.6,0.025,0.867,0.062l0.128-1.458c-0.408-0.062-0.881-0.1-1.25-0.1c-2.347,0-3.915,0.594-3.915,2.832v3.015
						c0,1.298,0.485,2.387,2.691,2.387s2.704-1.151,2.704-2.387v-0.532C69.24,87.133,68.513,86.539,67.085,86.539z M67.404,89.233
						c0,0.532-0.204,0.766-0.867,0.766s-0.855-0.197-0.855-0.766v-0.94c0.306-0.135,0.677-0.222,1.097-0.222
						c0.331,0,0.625,0.112,0.625,0.619V89.233z"/>
				</g>
			</g>
			<g>
				<g>
					<polygon class="st2" points="70.07,83.423 70.07,84.994 73.476,84.994 70.759,91.409 72.646,91.409 75.388,84.932 
						75.388,83.423 					"/>
				</g>
			</g>
			<g>
				<g>
					<path class="st2" d="M80.619,87.342c0.663-0.408,0.867-0.791,0.867-1.385v-0.691c0-1.249-0.663-1.967-2.563-1.967
						c-1.9,0-2.564,0.718-2.564,1.967v0.691c0,0.557,0.204,0.965,0.868,1.385c-0.83,0.433-1.072,0.866-1.072,1.458v0.63
						c0,1.509,0.74,2.102,2.768,2.102c2.027,0,2.767-0.594,2.767-2.102V88.8C81.69,88.195,81.447,87.775,80.619,87.342z
						 M78.132,85.34c0-0.396,0.14-0.594,0.791-0.594c0.651,0,0.79,0.197,0.79,0.594v0.594c0,0.37-0.013,0.493-0.765,0.766
						c-0.753-0.273-0.816-0.396-0.816-0.766V85.34z M79.917,89.406c0,0.47-0.229,0.669-0.994,0.669
						c-0.765,0-0.995-0.149-0.995-0.669v-0.406c0-0.408,0-0.557,0.969-0.915c0.969,0.358,1.02,0.507,1.02,0.915V89.406z"/>
				</g>
			</g>
		</g>
		<g>
			<g>
				<path class="st7" d="M89.667,57.532H25.514c-0.634,0-1.152,0.518-1.152,1.152s0.518,1.152,1.152,1.152h64.153
					c0.634,0,1.152-0.518,1.152-1.152S90.301,57.532,89.667,57.532z"/>
			</g>
		</g>
		<g>
			<g>
				<g>
					<path class="st11" d="M31.682,50.579c-2.284,0-2.871-1.017-2.871-2.751v-6.877c0-1.734,0.587-2.751,2.871-2.751
						c1.481,0,3.519,0.18,5.309,0.479l0.649-3.917c-2.038-0.419-3.89-0.628-5.958-0.628c-5.186,0-7.501,2.482-7.501,6.099v8.312
						c0,3.618,2.315,6.1,7.501,6.1c2.068,0,3.92-0.21,5.958-0.628L36.991,50.1C35.201,50.4,33.163,50.579,31.682,50.579z"/>
				</g>
			</g>
			<g>
				<g>
					<path class="st11" d="M47.762,34.135c-5.803,0-7.964,3.079-7.964,6.099v8.312c0,3.02,2.161,6.1,7.964,6.1s7.963-3.08,7.963-6.1
						v-8.312C55.726,37.214,53.566,34.135,47.762,34.135z M51.096,48.157c0,1.555-1.019,2.512-3.333,2.512
						c-2.315,0-3.334-0.957-3.334-2.512v-7.535c0-1.554,1.019-2.511,3.334-2.511c2.315,0,3.333,0.957,3.333,2.511V48.157z"/>
				</g>
			</g>
			<g>
				<g>
					<path class="st11" d="M67.236,34.434h-7.963v19.912h7.963c5.062,0,6.945-2.512,6.945-5.172v-9.568
						C74.182,36.916,72.298,34.434,67.236,34.434z M69.552,47.948c0,1.554-0.556,2.422-2.871,2.422h-2.778V38.41h2.778
						c2.315,0,2.871,0.867,2.871,2.422V47.948z"/>
				</g>
			</g>
			<g>
				<g>
					<polygon class="st11" points="90.663,38.41 90.663,34.434 77.729,34.434 77.729,54.346 90.663,54.346 90.663,50.369 
						82.359,50.369 82.359,46.034 90.015,46.034 90.015,42.058 82.359,42.058 82.359,38.41 					"/>
				</g>
			</g>
		</g>
	</g>
	<g>
		<g>
			<path class="st2" d="M45.807,11.805V30.53h0.867c0.169-0.761,0.846-1.331,1.658-1.331c0.812,0,1.489,0.57,1.658,1.331h1.269
				c0.169-0.761,0.846-1.331,1.658-1.331c0.812,0,1.489,0.57,1.658,1.331h1.269c0.169-0.761,0.846-1.331,1.658-1.331
				c0.812,0,1.489,0.57,1.658,1.331h1.269c0.169-0.761,0.846-1.331,1.658-1.331c0.812,0,1.489,0.57,1.658,1.331h1.269
				c0.169-0.761,0.846-1.331,1.658-1.331c0.812,0,1.489,0.57,1.658,1.331h0.867V11.805H45.807z"/>
		</g>
	</g>
	<g>
		<g>
			<path class="st0" d="M102.943,2.804C101.518,1.119,97.83,0,93.704,0H21.103c-4.126,0-7.814,1.119-9.239,2.804l-7.617,9.002
				h106.504L102.943,2.804z"/>
		</g>
	</g>
	<g>
		<g>
			<polygon class="st1" points="67.035,0 48.024,0 45.795,11.805 69.205,11.805 			"/>
		</g>
	</g>
	<g>
		<g>
			<path class="st2" d="M68.327,96.275c-0.169,0.761-0.846,1.331-1.658,1.331c-0.812,0-1.489-0.57-1.658-1.331h-1.269
				c-0.169,0.761-0.846,1.331-1.658,1.331c-0.812,0-1.489-0.57-1.658-1.331h-1.269c-0.169,0.761-0.846,1.331-1.658,1.331
				s-1.489-0.57-1.658-1.331h-1.269c-0.169,0.761-0.846,1.331-1.658,1.331c-0.812,0-1.489-0.57-1.658-1.331h-1.269
				c-0.169,0.761-0.846,1.331-1.658,1.331c-0.812,0-1.489-0.57-1.658-1.331h-0.867V115h23.387V96.275H68.327z"/>
		</g>
	</g>
</g>
</svg>
